<svg width="32" height="32" viewBox="0 0 32 32" fill="none" xmlns="http://www.w3.org/2000/svg">
<path d="M31.33 8.24756C31.1494 7.56674 30.7931 6.94531 30.2967 6.44549C29.8004 5.94567 29.1815 5.58499 28.502 5.39956C26.007 4.72656 16 4.72656 16 4.72656C16 4.72656 5.993 4.72656 3.497 5.39956C2.81774 5.58533 2.19915 5.94613 1.70305 6.44592C1.20695 6.9457 0.850732 7.56695 0.67 8.24756C0 10.7596 0 15.9996 0 15.9996C0 15.9996 0 21.2396 0.67 23.7516C0.850542 24.4324 1.20682 25.0539 1.70315 25.5537C2.19947 26.0536 2.81842 26.4142 3.498 26.5996C5.992 27.2726 15.999 27.2726 15.999 27.2726C15.999 27.2726 26.006 27.2726 28.502 26.5996C29.1818 26.4144 29.8009 26.0538 30.2974 25.554C30.7939 25.0541 31.1504 24.4326 31.331 23.7516C32 21.2396 32 15.9996 32 15.9996C32 15.9996 32 10.7596 31.33 8.24756ZM12.727 20.7576V11.2426L21.09 15.9996L12.726 20.7566L12.727 20.7576Z" fill="url(#paint0_linear_206_39)"/>
<defs>
<linearGradient id="paint0_linear_206_39" x1="16" y1="4.72656" x2="16" y2="27.2726" gradientUnits="userSpaceOnUse">
<stop stop-color="#F94BD2"/>
<stop offset="1" stop-color="#FD00E4"/>
</linearGradient>
</defs>
</svg>
