<svg width="52" height="52" viewBox="0 0 52 52" fill="none" xmlns="http://www.w3.org/2000/svg">
<g clip-path="url(#clip0_209_49)">
<path d="M38 4C38.5304 4 39.0391 3.78929 39.4142 3.41421C39.7893 3.03914 40 2.53043 40 2C40 1.46957 39.7893 0.960859 39.4142 0.585786C39.0391 0.210714 38.5304 0 38 0C37.4696 0 36.9609 0.210714 36.5858 0.585786C36.2107 0.960859 36 1.46957 36 2C36 2.53043 36.2107 3.03914 36.5858 3.41421C36.9609 3.78929 37.4696 4 38 4ZM50 4C50.5304 4 51.0391 3.78929 51.4142 3.41421C51.7893 3.03914 52 2.53043 52 2C52 1.46957 51.7893 0.960859 51.4142 0.585786C51.0391 0.210714 50.5304 0 50 0C49.4696 0 48.9609 0.210714 48.5858 0.585786C48.2107 0.960859 48 1.46957 48 2C48 2.53043 48.2107 3.03914 48.5858 3.41421C48.9609 3.78929 49.4696 4 50 4ZM14 16C14.5304 16 15.0391 15.7893 15.4142 15.4142C15.7893 15.0391 16 14.5304 16 14C16 13.4696 15.7893 12.9609 15.4142 12.5858C15.0391 12.2107 14.5304 12 14 12C13.4696 12 12.9609 12.2107 12.5858 12.5858C12.2107 12.9609 12 13.4696 12 14C12 14.5304 12.2107 15.0391 12.5858 15.4142C12.9609 15.7893 13.4696 16 14 16ZM26 16C26.5304 16 27.0391 15.7893 27.4142 15.4142C27.7893 15.0391 28 14.5304 28 14C28 13.4696 27.7893 12.9609 27.4142 12.5858C27.0391 12.2107 26.5304 12 26 12C25.4696 12 24.9609 12.2107 24.5858 12.5858C24.2107 12.9609 24 13.4696 24 14C24 14.5304 24.2107 15.0391 24.5858 15.4142C24.9609 15.7893 25.4696 16 26 16ZM38 16C38.5304 16 39.0391 15.7893 39.4142 15.4142C39.7893 15.0391 40 14.5304 40 14C40 13.4696 39.7893 12.9609 39.4142 12.5858C39.0391 12.2107 38.5304 12 38 12C37.4696 12 36.9609 12.2107 36.5858 12.5858C36.2107 12.9609 36 13.4696 36 14C36 14.5304 36.2107 15.0391 36.5858 15.4142C36.9609 15.7893 37.4696 16 38 16ZM50 16C50.5304 16 51.0391 15.7893 51.4142 15.4142C51.7893 15.0391 52 14.5304 52 14C52 13.4696 51.7893 12.9609 51.4142 12.5858C51.0391 12.2107 50.5304 12 50 12C49.4696 12 48.9609 12.2107 48.5858 12.5858C48.2107 12.9609 48 13.4696 48 14C48 14.5304 48.2107 15.0391 48.5858 15.4142C48.9609 15.7893 49.4696 16 50 16ZM14 28C14.5304 28 15.0391 27.7893 15.4142 27.4142C15.7893 27.0391 16 26.5304 16 26C16 25.4696 15.7893 24.9609 15.4142 24.5858C15.0391 24.2107 14.5304 24 14 24C13.4696 24 12.9609 24.2107 12.5858 24.5858C12.2107 24.9609 12 25.4696 12 26C12 26.5304 12.2107 27.0391 12.5858 27.4142C12.9609 27.7893 13.4696 28 14 28ZM26 28C26.5304 28 27.0391 27.7893 27.4142 27.4142C27.7893 27.0391 28 26.5304 28 26C28 25.4696 27.7893 24.9609 27.4142 24.5858C27.0391 24.2107 26.5304 24 26 24C25.4696 24 24.9609 24.2107 24.5858 24.5858C24.2107 24.9609 24 25.4696 24 26C24 26.5304 24.2107 27.0391 24.5858 27.4142C24.9609 27.7893 25.4696 28 26 28ZM38 28C38.5304 28 39.0391 27.7893 39.4142 27.4142C39.7893 27.0391 40 26.5304 40 26C40 25.4696 39.7893 24.9609 39.4142 24.5858C39.0391 24.2107 38.5304 24 38 24C37.4696 24 36.9609 24.2107 36.5858 24.5858C36.2107 24.9609 36 25.4696 36 26C36 26.5304 36.2107 27.0391 36.5858 27.4142C36.9609 27.7893 37.4696 28 38 28ZM50 28C50.5304 28 51.0391 27.7893 51.4142 27.4142C51.7893 27.0391 52 26.5304 52 26C52 25.4696 51.7893 24.9609 51.4142 24.5858C51.0391 24.2107 50.5304 24 50 24C49.4696 24 48.9609 24.2107 48.5858 24.5858C48.2107 24.9609 48 25.4696 48 26C48 26.5304 48.2107 27.0391 48.5858 27.4142C48.9609 27.7893 49.4696 28 50 28ZM2 40C2.53043 40 3.03914 39.7893 3.41421 39.4142C3.78929 39.0391 4 38.5304 4 38C4 37.4696 3.78929 36.9609 3.41421 36.5858C3.03914 36.2107 2.53043 36 2 36C1.46957 36 0.960859 36.2107 0.585786 36.5858C0.210714 36.9609 0 37.4696 0 38C0 38.5304 0.210714 39.0391 0.585786 39.4142C0.960859 39.7893 1.46957 40 2 40ZM14 40C14.5304 40 15.0391 39.7893 15.4142 39.4142C15.7893 39.0391 16 38.5304 16 38C16 37.4696 15.7893 36.9609 15.4142 36.5858C15.0391 36.2107 14.5304 36 14 36C13.4696 36 12.9609 36.2107 12.5858 36.5858C12.2107 36.9609 12 37.4696 12 38C12 38.5304 12.2107 39.0391 12.5858 39.4142C12.9609 39.7893 13.4696 40 14 40ZM26 40C26.5304 40 27.0391 39.7893 27.4142 39.4142C27.7893 39.0391 28 38.5304 28 38C28 37.4696 27.7893 36.9609 27.4142 36.5858C27.0391 36.2107 26.5304 36 26 36C25.4696 36 24.9609 36.2107 24.5858 36.5858C24.2107 36.9609 24 37.4696 24 38C24 38.5304 24.2107 39.0391 24.5858 39.4142C24.9609 39.7893 25.4696 40 26 40ZM38 40C38.5304 40 39.0391 39.7893 39.4142 39.4142C39.7893 39.0391 40 38.5304 40 38C40 37.4696 39.7893 36.9609 39.4142 36.5858C39.0391 36.2107 38.5304 36 38 36C37.4696 36 36.9609 36.2107 36.5858 36.5858C36.2107 36.9609 36 37.4696 36 38C36 38.5304 36.2107 39.0391 36.5858 39.4142C36.9609 39.7893 37.4696 40 38 40ZM50 40C50.5304 40 51.0391 39.7893 51.4142 39.4142C51.7893 39.0391 52 38.5304 52 38C52 37.4696 51.7893 36.9609 51.4142 36.5858C51.0391 36.2107 50.5304 36 50 36C49.4696 36 48.9609 36.2107 48.5858 36.5858C48.2107 36.9609 48 37.4696 48 38C48 38.5304 48.2107 39.0391 48.5858 39.4142C48.9609 39.7893 49.4696 40 50 40ZM2 52C2.53043 52 3.03914 51.7893 3.41421 51.4142C3.78929 51.0391 4 50.5304 4 50C4 49.4696 3.78929 48.9609 3.41421 48.5858C3.03914 48.2107 2.53043 48 2 48C1.46957 48 0.960859 48.2107 0.585786 48.5858C0.210714 48.9609 0 49.4696 0 50C0 50.5304 0.210714 51.0391 0.585786 51.4142C0.960859 51.7893 1.46957 52 2 52ZM14 52C14.5304 52 15.0391 51.7893 15.4142 51.4142C15.7893 51.0391 16 50.5304 16 50C16 49.4696 15.7893 48.9609 15.4142 48.5858C15.0391 48.2107 14.5304 48 14 48C13.4696 48 12.9609 48.2107 12.5858 48.5858C12.2107 48.9609 12 49.4696 12 50C12 50.5304 12.2107 51.0391 12.5858 51.4142C12.9609 51.7893 13.4696 52 14 52ZM26 52C26.5304 52 27.0391 51.7893 27.4142 51.4142C27.7893 51.0391 28 50.5304 28 50C28 49.4696 27.7893 48.9609 27.4142 48.5858C27.0391 48.2107 26.5304 48 26 48C25.4696 48 24.9609 48.2107 24.5858 48.5858C24.2107 48.9609 24 49.4696 24 50C24 50.5304 24.2107 51.0391 24.5858 51.4142C24.9609 51.7893 25.4696 52 26 52ZM38 52C38.5304 52 39.0391 51.7893 39.4142 51.4142C39.7893 51.0391 40 50.5304 40 50C40 49.4696 39.7893 48.9609 39.4142 48.5858C39.0391 48.2107 38.5304 48 38 48C37.4696 48 36.9609 48.2107 36.5858 48.5858C36.2107 48.9609 36 49.4696 36 50C36 50.5304 36.2107 51.0391 36.5858 51.4142C36.9609 51.7893 37.4696 52 38 52ZM50 52C50.5304 52 51.0391 51.7893 51.4142 51.4142C51.7893 51.0391 52 50.5304 52 50C52 49.4696 51.7893 48.9609 51.4142 48.5858C51.0391 48.2107 50.5304 48 50 48C49.4696 48 48.9609 48.2107 48.5858 48.5858C48.2107 48.9609 48 49.4696 48 50C48 50.5304 48.2107 51.0391 48.5858 51.4142C48.9609 51.7893 49.4696 52 50 52Z" fill="#AF0289"/>
</g>
<defs>
<clipPath id="clip0_209_49">
<rect width="52" height="52" fill="white"/>
</clipPath>
</defs>
</svg>
