<svg width="32" height="32" viewBox="0 0 32 32" fill="none" xmlns="http://www.w3.org/2000/svg">
<path d="M22.667 22.6529C20.867 22.6529 19.734 23.2129 18.734 23.7199C17.867 24.1599 17.16 24.5199 16 24.5199C14.8 24.5199 14.134 24.1869 13.267 23.7199C12.267 23.2129 11.174 22.6529 9.33399 22.6529C7.49399 22.6529 6.39999 23.2129 5.39999 23.7199C4.82699 24.0129 4.31999 24.2669 3.70699 24.4129C3.10699 24.5469 2.66699 25.0269 2.66699 25.6269V25.7599C2.66699 26.5599 3.41399 27.1329 4.18699 26.9729C5.17399 26.7729 5.91999 26.3999 6.59999 26.0529C7.46699 25.6129 8.15999 25.2529 9.33399 25.2529C10.507 25.2529 11.2 25.5869 12.067 26.0529C13.067 26.5599 14.16 27.1199 16 27.1199C17.84 27.1199 18.934 26.5599 19.934 26.0529C20.8 25.6129 21.507 25.2529 22.667 25.2529C23.867 25.2529 24.534 25.5869 25.4 26.0529C26.094 26.3999 26.84 26.7869 27.84 26.9869C28.0202 27.022 28.206 27.0172 28.3841 26.9727C28.5622 26.9282 28.7284 26.8451 28.8709 26.7293C29.0134 26.6135 29.1287 26.4678 29.2088 26.3026C29.2888 26.1373 29.3315 25.9565 29.334 25.7729V25.6529C29.334 25.0399 28.88 24.5599 28.28 24.4269C27.667 24.2929 27.174 24.0399 26.6 23.7329C25.6 23.2129 24.467 22.6529 22.667 22.6529ZM22.667 16.7199C20.867 16.7199 19.734 17.2929 18.734 17.7869C17.867 18.2129 17.16 18.5869 16 18.5869C14.8 18.5869 14.134 18.2529 13.267 17.7869C12.267 17.2799 11.174 16.7199 9.33399 16.7199C7.49399 16.7199 6.39999 17.2929 5.39999 17.7869C4.82699 18.0669 4.31999 18.3329 3.69399 18.4799C3.10699 18.6129 2.66699 19.0929 2.66699 19.6929V19.8269C2.66713 20.0111 2.70831 20.193 2.78755 20.3593C2.86679 20.5256 2.9821 20.6722 3.12508 20.7884C3.26807 20.9045 3.43514 20.9874 3.61416 21.0309C3.79318 21.0744 3.97964 21.0775 4.15999 21.0399C5.15999 20.8399 5.90699 20.4529 6.59999 20.1199C7.46699 19.6529 8.13399 19.3199 9.33399 19.3199C10.534 19.3199 11.2 19.6529 12.067 20.1199C13.067 20.6269 14.16 21.1869 16 21.1869C17.84 21.1869 18.934 20.6129 19.934 20.1199C20.8 19.6529 21.467 19.3199 22.667 19.3199C23.867 19.3199 24.534 19.6529 25.4 20.1199C26.094 20.4669 26.84 20.8529 27.84 21.0529C28.0212 21.0886 28.2081 21.0837 28.3873 21.0387C28.5664 20.9937 28.7334 20.9095 28.8762 20.7923C29.019 20.6751 29.1341 20.5278 29.2133 20.3609C29.2924 20.194 29.3336 20.0116 29.334 19.8269V19.7069C29.334 19.0929 28.88 18.6129 28.28 18.4799C27.667 18.3469 27.174 18.0929 26.6 17.7869C25.6 17.2799 24.467 16.7199 22.667 16.7199ZM26.6 5.94688C25.6 5.43988 24.494 4.87988 22.667 4.87988C20.84 4.87988 19.734 5.43988 18.734 5.94688C17.867 6.37288 17.16 6.74688 16 6.74688C14.8 6.74688 14.134 6.41288 13.267 5.94688C12.267 5.45288 11.174 4.87988 9.33399 4.87988C7.49399 4.87988 6.39999 5.43988 5.39999 5.94688C4.82699 6.23988 4.31999 6.49288 3.70699 6.63988C3.10699 6.77288 2.66699 7.25288 2.66699 7.85288V7.94688C2.66699 8.74688 3.38699 9.33288 4.15999 9.17288C5.15999 8.97288 5.90699 8.58688 6.59999 8.25288C7.46699 7.81288 8.15999 7.45288 9.33399 7.45288C10.507 7.45288 11.2 7.78688 12.067 8.25288C13.067 8.75988 14.16 9.31988 16 9.31988C17.84 9.31988 18.934 8.74688 19.934 8.25288C20.8 7.82688 21.507 7.45288 22.667 7.45288C23.867 7.45288 24.534 7.78688 25.4 8.25288C26.094 8.59988 26.84 8.98688 27.84 9.18688C28.0213 9.22223 28.2081 9.2171 28.3872 9.17185C28.5663 9.1266 28.7331 9.04236 28.8759 8.92513C29.0186 8.80791 29.1337 8.6606 29.2129 8.49374C29.2921 8.32688 29.3334 8.14458 29.334 7.95988V7.83988C29.334 7.22688 28.88 6.74688 28.28 6.61288C27.667 6.47988 27.174 6.23988 26.6 5.94688ZM22.667 10.7869C20.867 10.7869 19.734 11.3599 18.734 11.8529C17.867 12.3199 17.2 12.6529 16 12.6529C14.8 12.6529 14.134 12.3199 13.267 11.8529C12.267 11.3469 11.174 10.7869 9.33399 10.7869C7.49399 10.7869 6.39999 11.3599 5.39999 11.8529C4.82699 12.1599 4.33399 12.4129 3.71999 12.5469C3.11999 12.6799 2.66699 13.1599 2.66699 13.7729V13.8929C2.66698 14.0772 2.70806 14.2592 2.78723 14.4256C2.86641 14.5921 2.98169 14.7388 3.12469 14.8551C3.2677 14.9713 3.43482 15.0543 3.61392 15.0978C3.79301 15.1414 3.97956 15.1445 4.15999 15.1069C5.15999 14.9069 5.90699 14.5199 6.59999 14.1869C7.46699 13.7599 8.17399 13.3869 9.33399 13.3869C10.494 13.3869 11.2 13.7199 12.067 14.1869C13.067 14.6929 14.16 15.2529 16 15.2529C17.84 15.2529 18.934 14.6799 19.934 14.1869C20.8 13.7599 21.507 13.3869 22.667 13.3869C23.867 13.3869 24.534 13.7199 25.4 14.1869C26.094 14.5329 26.84 14.9199 27.84 15.1199C28.0201 15.155 28.2058 15.1502 28.3839 15.1057C28.5619 15.0613 28.7281 14.9783 28.8705 14.8626C29.013 14.7469 29.1284 14.6014 29.2085 14.4362C29.2885 14.2711 29.3314 14.0904 29.334 13.9069V13.7869C29.334 13.1729 28.88 12.6929 28.28 12.5599C27.667 12.4269 27.174 12.1729 26.6 11.8669C25.6 11.3469 24.467 10.7869 22.667 10.7869Z" fill="url(#paint0_linear_168_6)"/>
<defs>
<linearGradient id="paint0_linear_168_6" x1="16.0005" y1="4.87988" x2="16.0005" y2="27.1199" gradientUnits="userSpaceOnUse">
<stop stop-color="#F94BD2"/>
<stop offset="1" stop-color="#FD00E4"/>
</linearGradient>
</defs>
</svg>
