<svg width="13" height="9" viewBox="0 0 13 9" fill="none" xmlns="http://www.w3.org/2000/svg">
<g clip-path="url(#clip0_168_15)">
<path fill-rule="evenodd" clip-rule="evenodd" d="M12.7074 0.292786C12.8949 0.480314 13.0002 0.734622 13.0002 0.999786C13.0002 1.26495 12.8949 1.51926 12.7074 1.70679L5.70741 8.70679C5.51988 8.89426 5.26557 8.99957 5.00041 8.99957C4.73524 8.99957 4.48094 8.89426 4.29341 8.70679L0.293407 4.70679C0.111249 4.51818 0.0104547 4.26558 0.0127331 4.00339C0.0150115 3.74119 0.12018 3.49038 0.305589 3.30497C0.490997 3.11956 0.741809 3.01439 1.00401 3.01211C1.2662 3.00983 1.5188 3.11063 1.70741 3.29279L5.00041 6.58579L11.2934 0.292786C11.4809 0.105315 11.7352 0 12.0004 0C12.2656 0 12.5199 0.105315 12.7074 0.292786Z" fill="#F94BD2"/>
</g>
<defs>
<clipPath id="clip0_168_15">
<rect width="13" height="9" fill="white"/>
</clipPath>
</defs>
</svg>
