<svg width="32" height="32" viewBox="0 0 32 32" fill="none" xmlns="http://www.w3.org/2000/svg">
<path d="M16 10.667C15.2995 10.6667 14.6059 10.8045 13.9587 11.0724C13.3115 11.3403 12.7234 11.7331 12.2281 12.2284C11.7327 12.7236 11.3398 13.3116 11.0718 13.9588C10.8038 14.6059 10.6659 15.2995 10.666 16C10.6659 16.7005 10.8038 17.3941 11.0718 18.0412C11.3398 18.6884 11.7327 19.2764 12.2281 19.7717C12.7234 20.2669 13.3115 20.6597 13.9587 20.9276C14.6059 21.1955 15.2995 21.3333 16 21.333C16.7004 21.3331 17.3939 21.1953 18.041 20.9273C18.6881 20.6594 19.2761 20.2665 19.7713 19.7713C20.2665 19.2761 20.6594 18.6881 20.9273 18.041C21.1953 17.3939 21.3331 16.7004 21.333 16C21.3331 15.2996 21.1953 14.6061 20.9273 13.959C20.6594 13.3119 20.2665 12.724 19.7713 12.2287C19.2761 11.7335 18.6881 11.3407 18.041 11.0727C17.3939 10.8047 16.7004 10.6669 16 10.667ZM27.92 14.667C27.618 11.9631 26.4056 9.44216 24.4817 7.5183C22.5579 5.59443 20.037 4.38197 17.333 4.08001V2.66701C17.333 1.93301 16.733 1.33301 16 1.33301C15.266 1.33301 14.666 1.93301 14.666 2.66701V4.08001C11.9622 4.38218 9.44158 5.59474 7.51791 7.51859C5.59425 9.44243 4.38192 11.9632 4.08001 14.667H2.66601C1.93301 14.667 1.33301 15.267 1.33301 16C1.33301 16.733 1.93301 17.333 2.66601 17.333H4.08001C4.38192 20.0368 5.59425 22.5576 7.51791 24.4814C9.44158 26.4053 11.9622 27.6178 14.666 27.92V29.333C14.666 30.067 15.266 30.667 16 30.667C16.733 30.667 17.333 30.067 17.333 29.333V27.92C20.037 27.618 22.5579 26.4056 24.4817 24.4817C26.4056 22.5579 27.618 20.037 27.92 17.333H29.333C30.066 17.333 30.666 16.733 30.666 16C30.666 15.267 30.066 14.667 29.333 14.667H27.92ZM16 25.333C14.7741 25.3339 13.56 25.0932 12.4272 24.6245C11.2944 24.1558 10.2651 23.4684 9.39817 22.6015C8.53126 21.7347 7.84374 20.7055 7.37493 19.5728C6.90612 18.44 6.66522 17.2259 6.66601 16C6.66509 14.774 6.9059 13.5599 7.37466 12.4271C7.84342 11.2943 8.53094 10.265 9.39788 9.39817C10.2648 8.53133 11.2942 7.84392 12.427 7.37528C13.5599 6.90664 14.774 6.66596 16 6.66701C17.2259 6.66609 18.4399 6.90686 19.5727 7.37557C20.7054 7.84427 21.7347 8.53169 22.6015 9.39853C23.4683 10.2654 24.1557 11.2946 24.6245 12.4273C25.0932 13.5601 25.3339 14.7741 25.333 16C25.3338 17.2259 25.0929 18.4398 24.6242 19.5725C24.1554 20.7052 23.468 21.7344 22.6012 22.6012C21.7344 23.468 20.7052 24.1554 19.5725 24.6242C18.4398 25.0929 17.2259 25.3338 16 25.333Z" fill="url(#paint0_linear_168_8)"/>
<defs>
<linearGradient id="paint0_linear_168_8" x1="15.9995" y1="1.33301" x2="15.9995" y2="30.667" gradientUnits="userSpaceOnUse">
<stop stop-color="#F94BD2"/>
<stop offset="1" stop-color="#FD00E4"/>
</linearGradient>
</defs>
</svg>
