<svg width="32" height="32" viewBox="0 0 32 32" fill="none" xmlns="http://www.w3.org/2000/svg">
<path d="M8.06688 10.7332C6.32109 12.4792 5.33809 14.8456 5.33303 17.3146C5.32797 19.7837 6.30126 22.1541 8.03988 23.9072C9.99988 19.3732 13.4929 15.5872 17.8529 13.3332C14.0895 16.5175 11.549 20.9102 10.6659 25.7602C14.1329 27.4002 18.3999 26.8002 21.2659 23.9332C25.2529 19.9472 26.3729 9.08021 26.6129 6.09321C26.6211 5.99843 26.6085 5.90299 26.5759 5.81359C26.5434 5.72419 26.4916 5.64301 26.4244 5.57573C26.3571 5.50846 26.2759 5.45672 26.1865 5.42415C26.0971 5.39158 26.0017 5.37898 25.9069 5.38721C22.9199 5.62721 12.0529 6.74721 8.06688 10.7332Z" fill="url(#paint0_linear_168_21)"/>
<defs>
<linearGradient id="paint0_linear_168_21" x1="15.9742" y1="5.38477" x2="15.9742" y2="26.6594" gradientUnits="userSpaceOnUse">
<stop stop-color="#F94BD2"/>
<stop offset="1" stop-color="#FD00E4"/>
</linearGradient>
</defs>
</svg>
