<svg width="20" height="20" viewBox="0 0 20 20" fill="none" xmlns="http://www.w3.org/2000/svg">
<path d="M16.0235 12.7168L13.9065 12.4748C13.6577 12.4456 13.4056 12.4731 13.169 12.5554C12.9324 12.6377 12.7175 12.7725 12.5405 12.9498L11.0065 14.4828C8.64158 13.2795 6.71937 11.357 5.51651 8.99182L7.05651 7.44982C7.41651 7.09182 7.59151 6.59182 7.53251 6.08282L7.29151 3.98282C7.24413 3.57605 7.04877 3.20094 6.74264 2.92893C6.43652 2.65692 6.04103 2.50703 5.63151 2.50782H4.19151C3.24951 2.50782 2.46651 3.29182 2.52451 4.23282C2.96651 11.3498 8.65751 17.0328 15.7665 17.4748C16.7065 17.5328 17.4905 16.7498 17.4905 15.8078V14.3668C17.4926 13.9594 17.3441 13.5656 17.0735 13.2611C16.8029 12.9565 16.4283 12.7627 16.0235 12.7168Z" fill="url(#paint0_linear_168_25)"/>
<defs>
<linearGradient id="paint0_linear_168_25" x1="10.006" y1="2.50781" x2="10.006" y2="17.4778" gradientUnits="userSpaceOnUse">
<stop stop-color="#F94BD2"/>
<stop offset="1" stop-color="#FD00E4"/>
</linearGradient>
</defs>
</svg>
