<svg width="32" height="32" viewBox="0 0 32 32" fill="none" xmlns="http://www.w3.org/2000/svg">
<path d="M25.9463 13.333C25.8146 13.5274 25.7366 13.7532 25.7203 13.9875C25.704 14.2218 25.7498 14.4562 25.8533 14.667C26.1833 15.439 26.4173 16.249 26.5463 17.08C26.8896 19.227 26.5686 21.4276 25.6263 23.387C25.5118 23.6016 25.3408 23.7809 25.1317 23.9053C24.9227 24.0298 24.6836 24.0947 24.4403 24.093H7.57332C7.32842 24.0936 7.08808 24.0267 6.87869 23.8997C6.6693 23.7727 6.49894 23.5905 6.38632 23.373C5.53301 21.6416 5.16551 19.711 5.32301 17.7872C5.4805 15.8633 6.15709 14.0183 7.28064 12.4487C8.40419 10.879 9.9326 9.64373 11.7029 8.87438C13.4733 8.10504 15.4192 7.83049 17.3333 8.08001C18.3013 8.19401 19.2493 8.44501 20.1463 8.82701C20.3572 8.93024 20.5917 8.97591 20.826 8.9594C21.0602 8.94289 21.2859 8.8648 21.4803 8.73301C21.6827 8.5996 21.8449 8.41351 21.9495 8.19477C22.054 7.97603 22.0969 7.73293 22.0736 7.49163C22.0502 7.25032 21.9615 7.01995 21.817 6.82531C21.6724 6.63068 21.4776 6.47914 21.2533 6.38701C18.6776 5.28236 15.8194 5.01743 13.0845 5.62985C10.3497 6.24227 7.87735 7.7009 6.01876 9.79853C4.16017 11.8962 3.00982 14.5261 2.73114 17.3148C2.45245 20.1035 3.05959 22.9091 4.46632 25.333C4.69892 25.7363 5.03308 26.0717 5.43555 26.3057C5.83802 26.5397 6.29476 26.6643 6.76032 26.667H25.2263C25.6963 26.6687 26.1583 26.5462 26.5657 26.3119C26.9731 26.0777 27.3114 25.74 27.5463 25.333C28.5762 23.5484 29.1785 21.5493 29.3059 19.4927C29.4332 17.4362 29.0822 15.3781 28.2803 13.48C28.1787 13.2637 28.0208 13.0786 27.8231 12.9442C27.6255 12.8098 27.3954 12.731 27.1568 12.716C26.9183 12.7009 26.6801 12.7503 26.4671 12.8588C26.2542 12.9674 26.0743 13.1311 25.9463 13.333Z" fill="url(#paint0_linear_168_12)"/>
<path d="M14.1201 16.7872C13.6198 17.2877 13.3388 17.9664 13.3389 18.6741C13.339 19.3818 13.6202 20.0604 14.1206 20.5607C14.6211 21.0611 15.2998 21.3421 16.0075 21.342C16.7152 21.3419 17.3938 21.0607 17.8941 20.5602L25.4401 9.24023L14.1201 16.7872Z" fill="url(#paint1_linear_168_12)"/>
<defs>
<linearGradient id="paint0_linear_168_12" x1="15.9982" y1="5.30762" x2="15.9982" y2="26.667" gradientUnits="userSpaceOnUse">
<stop stop-color="#F94BD2"/>
<stop offset="1" stop-color="#FD00E4"/>
</linearGradient>
<linearGradient id="paint1_linear_168_12" x1="19.3895" y1="9.24023" x2="19.3895" y2="21.342" gradientUnits="userSpaceOnUse">
<stop stop-color="#F94BD2"/>
<stop offset="1" stop-color="#FD00E4"/>
</linearGradient>
</defs>
</svg>
