<svg width="32" height="32" viewBox="0 0 32 32" fill="none" xmlns="http://www.w3.org/2000/svg">
<g clip-path="url(#clip0_223_5)">
<path d="M16 32C24.8366 32 32 24.8366 32 16C32 7.16344 24.8366 0 16 0C7.16344 0 0 7.16344 0 16C0 24.8366 7.16344 32 16 32Z" fill="white"/>
<path d="M23.583 12.832H22.695L20.853 7.76203C20.7006 7.34406 20.4237 6.98286 20.0597 6.72716C19.6956 6.47146 19.2619 6.33355 18.817 6.33203H17.083C16.488 6.33203 16 6.82003 16 7.41603C16 8.01103 16.488 8.49903 17.083 8.49903H18.817L20.398 12.832H15.188L14.798 11.749H14.895C15.491 11.749 15.978 11.261 15.978 10.666C15.978 10.07 15.491 9.58203 14.895 9.58203H11.667C11.071 9.58203 10.583 10.07 10.583 10.666C10.583 11.261 11.071 11.749 11.667 11.749H12.479L14.451 17.166H13.725C13.248 14.75 11.223 12.962 8.688 12.843C5.654 12.692 3 15.216 3 18.249C3 21.282 5.383 23.666 8.417 23.666C11.082 23.666 13.237 21.835 13.725 19.332H18.275C18.752 21.748 20.778 23.536 23.313 23.655C26.346 23.795 29 21.282 29 18.238C29 15.216 26.617 12.832 23.583 12.832ZM9.5 19.332H11.472C11.017 20.665 9.738 21.586 8.2 21.488C6.586 21.391 5.243 20.026 5.167 18.401C5.09 16.505 6.543 14.999 8.417 14.999C9.857 14.999 11.038 15.899 11.472 17.166H9.5C8.904 17.166 8.417 17.653 8.417 18.249C8.417 18.845 8.904 19.332 9.5 19.332ZM18.275 17.166H16.758L15.968 14.999H19.25C18.7598 15.6351 18.4258 16.3773 18.275 17.166ZM23.453 21.499C21.785 21.434 20.377 20.015 20.333 18.336C20.3188 17.8518 20.4138 17.3705 20.6108 16.9279C20.8077 16.4853 21.1017 16.0927 21.471 15.779L22.142 17.621C22.19 17.755 22.2641 17.8782 22.3599 17.9835C22.4557 18.0888 22.5714 18.1741 22.7003 18.2345C22.8292 18.2949 22.9688 18.3292 23.111 18.3355C23.2532 18.3417 23.3953 18.3198 23.529 18.271C23.663 18.223 23.7862 18.1489 23.8915 18.0531C23.9967 17.9573 24.082 17.8416 24.1424 17.7127C24.2028 17.5838 24.2372 17.4442 24.2434 17.302C24.2497 17.1598 24.2278 17.0178 24.179 16.884L23.497 15.01L23.507 14.999C23.9414 14.984 24.3744 15.0572 24.7797 15.2142C25.185 15.3713 25.5542 15.6089 25.8651 15.9126C26.176 16.2164 26.4221 16.5801 26.5884 16.9817C26.7548 17.3833 26.838 17.8144 26.833 18.249C26.833 20.112 25.338 21.564 23.453 21.499Z" fill="url(#paint0_linear_223_5)"/>
</g>
<defs>
<linearGradient id="paint0_linear_223_5" x1="16" y1="6.33203" x2="16" y2="23.666" gradientUnits="userSpaceOnUse">
<stop stop-color="#F94BD2"/>
<stop offset="1" stop-color="#FD00E4"/>
</linearGradient>
<clipPath id="clip0_223_5">
<rect width="32" height="32" fill="white"/>
</clipPath>
</defs>
</svg>
