<svg width="299" height="36" viewBox="0 0 299 36" fill="none" xmlns="http://www.w3.org/2000/svg">
<path d="M0.492188 35V0.640625H11.625C15.8438 0.640625 18.5938 0.8125 19.875 1.15625C21.8438 1.67188 23.4922 2.79688 24.8203 4.53125C26.1484 6.25 26.8125 8.47656 26.8125 11.2109C26.8125 13.3203 26.4297 15.0938 25.6641 16.5312C24.8984 17.9688 23.9219 19.1016 22.7344 19.9297C21.5625 20.7422 20.3672 21.2812 19.1484 21.5469C17.4922 21.875 15.0938 22.0391 11.9531 22.0391H7.42969V35H0.492188ZM7.42969 6.45312V16.2031H11.2266C13.9609 16.2031 15.7891 16.0234 16.7109 15.6641C17.6328 15.3047 18.3516 14.7422 18.8672 13.9766C19.3984 13.2109 19.6641 12.3203 19.6641 11.3047C19.6641 10.0547 19.2969 9.02344 18.5625 8.21094C17.8281 7.39844 16.8984 6.89063 15.7734 6.6875C14.9453 6.53125 13.2812 6.45312 10.7812 6.45312H7.42969ZM32.5078 35V0.640625H57.9844V6.45312H39.4453V14.0703H56.6953V19.8594H39.4453V29.2109H58.6406V35H32.5078ZM64.5 0.640625H77.1797C80.0391 0.640625 82.2188 0.859375 83.7188 1.29688C85.7344 1.89062 87.4609 2.94531 88.8984 4.46094C90.3359 5.97656 91.4297 7.83594 92.1797 10.0391C92.9297 12.2266 93.3047 14.9297 93.3047 18.1484C93.3047 20.9766 92.9531 23.4141 92.25 25.4609C91.3906 27.9609 90.1641 29.9844 88.5703 31.5312C87.3672 32.7031 85.7422 33.6172 83.6953 34.2734C82.1641 34.7578 80.1172 35 77.5547 35H64.5V0.640625ZM71.4375 6.45312V29.2109H76.6172C78.5547 29.2109 79.9531 29.1016 80.8125 28.8828C81.9375 28.6016 82.8672 28.125 83.6016 27.4531C84.3516 26.7812 84.9609 25.6797 85.4297 24.1484C85.8984 22.6016 86.1328 20.5 86.1328 17.8438C86.1328 15.1875 85.8984 13.1484 85.4297 11.7266C84.9609 10.3047 84.3047 9.19531 83.4609 8.39844C82.6172 7.60156 81.5469 7.0625 80.25 6.78125C79.2812 6.5625 77.3828 6.45312 74.5547 6.45312H71.4375ZM130.195 35H122.648L119.648 27.1953H105.914L103.078 35H95.7188L109.102 0.640625H116.438L130.195 35ZM117.422 21.4062L112.688 8.65625L108.047 21.4062H117.422ZM134.086 35V0.921875H141.023V29.2109H158.273V35H134.086Z" fill="#0B0A0B"/>
<path d="M163.266 35V0.640625H177.867C181.539 0.640625 184.203 0.953125 185.859 1.57812C187.531 2.1875 188.867 3.28125 189.867 4.85938C190.867 6.4375 191.367 8.24219 191.367 10.2734C191.367 12.8516 190.609 14.9844 189.094 16.6719C187.578 18.3438 185.312 19.3984 182.297 19.8359C183.797 20.7109 185.031 21.6719 186 22.7188C186.984 23.7656 188.305 25.625 189.961 28.2969L194.156 35H185.859L180.844 27.5234C179.062 24.8516 177.844 23.1719 177.188 22.4844C176.531 21.7812 175.836 21.3047 175.102 21.0547C174.367 20.7891 173.203 20.6562 171.609 20.6562H170.203V35H163.266ZM170.203 15.1719H175.336C178.664 15.1719 180.742 15.0312 181.57 14.75C182.398 14.4688 183.047 13.9844 183.516 13.2969C183.984 12.6094 184.219 11.75 184.219 10.7188C184.219 9.5625 183.906 8.63281 183.281 7.92969C182.672 7.21094 181.805 6.75781 180.68 6.57031C180.117 6.49219 178.43 6.45312 175.617 6.45312H170.203V15.1719ZM196.523 18.0312C196.523 14.5312 197.047 11.5938 198.094 9.21875C198.875 7.46875 199.938 5.89844 201.281 4.50781C202.641 3.11719 204.125 2.08594 205.734 1.41406C207.875 0.507812 210.344 0.0546875 213.141 0.0546875C218.203 0.0546875 222.25 1.625 225.281 4.76562C228.328 7.90625 229.852 12.2734 229.852 17.8672C229.852 23.4141 228.344 27.7578 225.328 30.8984C222.312 34.0234 218.281 35.5859 213.234 35.5859C208.125 35.5859 204.062 34.0312 201.047 30.9219C198.031 27.7969 196.523 23.5 196.523 18.0312ZM203.672 17.7969C203.672 21.6875 204.57 24.6406 206.367 26.6562C208.164 28.6562 210.445 29.6562 213.211 29.6562C215.977 29.6562 218.242 28.6641 220.008 26.6797C221.789 24.6797 222.68 21.6875 222.68 17.7031C222.68 13.7656 221.812 10.8281 220.078 8.89062C218.359 6.95312 216.07 5.98438 213.211 5.98438C210.352 5.98438 208.047 6.96875 206.297 8.9375C204.547 10.8906 203.672 13.8438 203.672 17.7969ZM233.531 23.8203L240.281 23.1641C240.688 25.4297 241.508 27.0938 242.742 28.1562C243.992 29.2188 245.672 29.75 247.781 29.75C250.016 29.75 251.695 29.2812 252.82 28.3438C253.961 27.3906 254.531 26.2812 254.531 25.0156C254.531 24.2031 254.289 23.5156 253.805 22.9531C253.336 22.375 252.508 21.875 251.32 21.4531C250.508 21.1719 248.656 20.6719 245.766 19.9531C242.047 19.0312 239.438 17.8984 237.938 16.5547C235.828 14.6641 234.773 12.3594 234.773 9.64062C234.773 7.89062 235.266 6.25781 236.25 4.74219C237.25 3.21094 238.68 2.04688 240.539 1.25C242.414 0.453125 244.672 0.0546875 247.312 0.0546875C251.625 0.0546875 254.867 1 257.039 2.89062C259.227 4.78125 260.375 7.30469 260.484 10.4609L253.547 10.7656C253.25 9 252.609 7.73438 251.625 6.96875C250.656 6.1875 249.195 5.79688 247.242 5.79688C245.227 5.79688 243.648 6.21094 242.508 7.03906C241.773 7.57031 241.406 8.28125 241.406 9.17188C241.406 9.98438 241.75 10.6797 242.438 11.2578C243.312 11.9922 245.438 12.7578 248.812 13.5547C252.188 14.3516 254.68 15.1797 256.289 16.0391C257.914 16.8828 259.18 18.0469 260.086 19.5312C261.008 21 261.469 22.8203 261.469 24.9922C261.469 26.9609 260.922 28.8047 259.828 30.5234C258.734 32.2422 257.188 33.5234 255.188 34.3672C253.188 35.1953 250.695 35.6094 247.711 35.6094C243.367 35.6094 240.031 34.6094 237.703 32.6094C235.375 30.5938 233.984 27.6641 233.531 23.8203ZM298.289 35H290.742L287.742 27.1953H274.008L271.172 35H263.812L277.195 0.640625H284.531L298.289 35ZM285.516 21.4062L280.781 8.65625L276.141 21.4062H285.516Z" fill="#F94BD2"/>
</svg>
