<svg width="223" height="45" viewBox="0 0 223 45" fill="none" xmlns="http://www.w3.org/2000/svg">
<path d="M0.257812 10.1094H6.39844V13.7656C7.19531 12.5156 8.27344 11.5 9.63281 10.7188C10.9922 9.9375 12.5 9.54688 14.1562 9.54688C17.0469 9.54688 19.5 10.6797 21.5156 12.9453C23.5312 15.2109 24.5391 18.3672 24.5391 22.4141C24.5391 26.5703 23.5234 29.8047 21.4922 32.1172C19.4609 34.4141 17 35.5625 14.1094 35.5625C12.7344 35.5625 11.4844 35.2891 10.3594 34.7422C9.25 34.1953 8.07812 33.2578 6.84375 31.9297V44.4688H0.257812V10.1094ZM6.77344 22.1328C6.77344 24.9297 7.32812 27 8.4375 28.3438C9.54688 29.6719 10.8984 30.3359 12.4922 30.3359C14.0234 30.3359 15.2969 29.7266 16.3125 28.5078C17.3281 27.2734 17.8359 25.2578 17.8359 22.4609C17.8359 19.8516 17.3125 17.9141 16.2656 16.6484C15.2188 15.3828 13.9219 14.75 12.375 14.75C10.7656 14.75 9.42969 15.375 8.36719 16.625C7.30469 17.8594 6.77344 19.6953 6.77344 22.1328ZM44.2031 27.0781L50.7656 28.1797C49.9219 30.5859 48.5859 32.4219 46.7578 33.6875C44.9453 34.9375 42.6719 35.5625 39.9375 35.5625C35.6094 35.5625 32.4062 34.1484 30.3281 31.3203C28.6875 29.0547 27.8672 26.1953 27.8672 22.7422C27.8672 18.6172 28.9453 15.3906 31.1016 13.0625C33.2578 10.7188 35.9844 9.54688 39.2812 9.54688C42.9844 9.54688 45.9062 10.7734 48.0469 13.2266C50.1875 15.6641 51.2109 19.4062 51.1172 24.4531H34.6172C34.6641 26.4062 35.1953 27.9297 36.2109 29.0234C37.2266 30.1016 38.4922 30.6406 40.0078 30.6406C41.0391 30.6406 41.9062 30.3594 42.6094 29.7969C43.3125 29.2344 43.8438 28.3281 44.2031 27.0781ZM44.5781 20.4219C44.5312 18.5156 44.0391 17.0703 43.1016 16.0859C42.1641 15.0859 41.0234 14.5859 39.6797 14.5859C38.2422 14.5859 37.0547 15.1094 36.1172 16.1562C35.1797 17.2031 34.7188 18.625 34.7344 20.4219H44.5781ZM79.3359 35H73.2188V31.3438C72.2031 32.7656 71 33.8281 69.6094 34.5312C68.2344 35.2188 66.8438 35.5625 65.4375 35.5625C62.5781 35.5625 60.125 34.4141 58.0781 32.1172C56.0469 29.8047 55.0312 26.5859 55.0312 22.4609C55.0312 18.2422 56.0234 15.0391 58.0078 12.8516C59.9922 10.6484 62.5 9.54688 65.5312 9.54688C68.3125 9.54688 70.7188 10.7031 72.75 13.0156V0.640625H79.3359V35ZM61.7578 22.0156C61.7578 24.6719 62.125 26.5938 62.8594 27.7812C63.9219 29.5 65.4062 30.3594 67.3125 30.3594C68.8281 30.3594 70.1172 29.7188 71.1797 28.4375C72.2422 27.1406 72.7734 25.2109 72.7734 22.6484C72.7734 19.7891 72.2578 17.7344 71.2266 16.4844C70.1953 15.2188 68.875 14.5859 67.2656 14.5859C65.7031 14.5859 64.3906 15.2109 63.3281 16.4609C62.2812 17.6953 61.7578 19.5469 61.7578 22.0156ZM90.7734 17.7031L84.7969 16.625C85.4688 14.2188 86.625 12.4375 88.2656 11.2812C89.9062 10.125 92.3438 9.54688 95.5781 9.54688C98.5156 9.54688 100.703 9.89844 102.141 10.6016C103.578 11.2891 104.586 12.1719 105.164 13.25C105.758 14.3125 106.055 16.2734 106.055 19.1328L105.984 26.8203C105.984 29.0078 106.086 30.625 106.289 31.6719C106.508 32.7031 106.906 33.8125 107.484 35H100.969C100.797 34.5625 100.586 33.9141 100.336 33.0547C100.227 32.6641 100.148 32.4062 100.102 32.2812C98.9766 33.375 97.7734 34.1953 96.4922 34.7422C95.2109 35.2891 93.8438 35.5625 92.3906 35.5625C89.8281 35.5625 87.8047 34.8672 86.3203 33.4766C84.8516 32.0859 84.1172 30.3281 84.1172 28.2031C84.1172 26.7969 84.4531 25.5469 85.125 24.4531C85.7969 23.3438 86.7344 22.5 87.9375 21.9219C89.1562 21.3281 90.9062 20.8125 93.1875 20.375C96.2656 19.7969 98.3984 19.2578 99.5859 18.7578V18.1016C99.5859 16.8359 99.2734 15.9375 98.6484 15.4062C98.0234 14.8594 96.8438 14.5859 95.1094 14.5859C93.9375 14.5859 93.0234 14.8203 92.3672 15.2891C91.7109 15.7422 91.1797 16.5469 90.7734 17.7031ZM99.5859 23.0469C98.7422 23.3281 97.4062 23.6641 95.5781 24.0547C93.75 24.4453 92.5547 24.8281 91.9922 25.2031C91.1328 25.8125 90.7031 26.5859 90.7031 27.5234C90.7031 28.4453 91.0469 29.2422 91.7344 29.9141C92.4219 30.5859 93.2969 30.9219 94.3594 30.9219C95.5469 30.9219 96.6797 30.5312 97.7578 29.75C98.5547 29.1562 99.0781 28.4297 99.3281 27.5703C99.5 27.0078 99.5859 25.9375 99.5859 24.3594V23.0469ZM112.57 35V0.640625H119.156V35H112.57Z" fill="white"/>
<path d="M132.234 35H125.648V10.1094H131.766V13.6484C132.812 11.9766 133.75 10.875 134.578 10.3438C135.422 9.8125 136.375 9.54688 137.438 9.54688C138.938 9.54688 140.383 9.96094 141.773 10.7891L139.734 16.5312C138.625 15.8125 137.594 15.4531 136.641 15.4531C135.719 15.4531 134.938 15.7109 134.297 16.2266C133.656 16.7266 133.148 17.6406 132.773 18.9688C132.414 20.2969 132.234 23.0781 132.234 27.3125V35ZM143.109 22.2031C143.109 20.0156 143.648 17.8984 144.727 15.8516C145.805 13.8047 147.328 12.2422 149.297 11.1641C151.281 10.0859 153.492 9.54688 155.93 9.54688C159.695 9.54688 162.781 10.7734 165.188 13.2266C167.594 15.6641 168.797 18.75 168.797 22.4844C168.797 26.25 167.578 29.375 165.141 31.8594C162.719 34.3281 159.664 35.5625 155.977 35.5625C153.695 35.5625 151.516 35.0469 149.438 34.0156C147.375 32.9844 145.805 31.4766 144.727 29.4922C143.648 27.4922 143.109 25.0625 143.109 22.2031ZM149.859 22.5547C149.859 25.0234 150.445 26.9141 151.617 28.2266C152.789 29.5391 154.234 30.1953 155.953 30.1953C157.672 30.1953 159.109 29.5391 160.266 28.2266C161.438 26.9141 162.023 25.0078 162.023 22.5078C162.023 20.0703 161.438 18.1953 160.266 16.8828C159.109 15.5703 157.672 14.9141 155.953 14.9141C154.234 14.9141 152.789 15.5703 151.617 16.8828C150.445 18.1953 149.859 20.0859 149.859 22.5547ZM171.656 27.8984L178.266 26.8906C178.547 28.1719 179.117 29.1484 179.977 29.8203C180.836 30.4766 182.039 30.8047 183.586 30.8047C185.289 30.8047 186.57 30.4922 187.43 29.8672C188.008 29.4297 188.297 28.8438 188.297 28.1094C188.297 27.6094 188.141 27.1953 187.828 26.8672C187.5 26.5547 186.766 26.2656 185.625 26C180.312 24.8281 176.945 23.7578 175.523 22.7891C173.555 21.4453 172.57 19.5781 172.57 17.1875C172.57 15.0312 173.422 13.2188 175.125 11.75C176.828 10.2812 179.469 9.54688 183.047 9.54688C186.453 9.54688 188.984 10.1016 190.641 11.2109C192.297 12.3203 193.438 13.9609 194.062 16.1328L187.852 17.2812C187.586 16.3125 187.078 15.5703 186.328 15.0547C185.594 14.5391 184.539 14.2812 183.164 14.2812C181.43 14.2812 180.188 14.5234 179.438 15.0078C178.938 15.3516 178.688 15.7969 178.688 16.3438C178.688 16.8125 178.906 17.2109 179.344 17.5391C179.938 17.9766 181.984 18.5938 185.484 19.3906C189 20.1875 191.453 21.1641 192.844 22.3203C194.219 23.4922 194.906 25.125 194.906 27.2188C194.906 29.5 193.953 31.4609 192.047 33.1016C190.141 34.7422 187.32 35.5625 183.586 35.5625C180.195 35.5625 177.508 34.875 175.523 33.5C173.555 32.125 172.266 30.2578 171.656 27.8984ZM205.617 17.7031L199.641 16.625C200.312 14.2188 201.469 12.4375 203.109 11.2812C204.75 10.125 207.188 9.54688 210.422 9.54688C213.359 9.54688 215.547 9.89844 216.984 10.6016C218.422 11.2891 219.43 12.1719 220.008 13.25C220.602 14.3125 220.898 16.2734 220.898 19.1328L220.828 26.8203C220.828 29.0078 220.93 30.625 221.133 31.6719C221.352 32.7031 221.75 33.8125 222.328 35H215.812C215.641 34.5625 215.43 33.9141 215.18 33.0547C215.07 32.6641 214.992 32.4062 214.945 32.2812C213.82 33.375 212.617 34.1953 211.336 34.7422C210.055 35.2891 208.688 35.5625 207.234 35.5625C204.672 35.5625 202.648 34.8672 201.164 33.4766C199.695 32.0859 198.961 30.3281 198.961 28.2031C198.961 26.7969 199.297 25.5469 199.969 24.4531C200.641 23.3438 201.578 22.5 202.781 21.9219C204 21.3281 205.75 20.8125 208.031 20.375C211.109 19.7969 213.242 19.2578 214.43 18.7578V18.1016C214.43 16.8359 214.117 15.9375 213.492 15.4062C212.867 14.8594 211.688 14.5859 209.953 14.5859C208.781 14.5859 207.867 14.8203 207.211 15.2891C206.555 15.7422 206.023 16.5469 205.617 17.7031ZM214.43 23.0469C213.586 23.3281 212.25 23.6641 210.422 24.0547C208.594 24.4453 207.398 24.8281 206.836 25.2031C205.977 25.8125 205.547 26.5859 205.547 27.5234C205.547 28.4453 205.891 29.2422 206.578 29.9141C207.266 30.5859 208.141 30.9219 209.203 30.9219C210.391 30.9219 211.523 30.5312 212.602 29.75C213.398 29.1562 213.922 28.4297 214.172 27.5703C214.344 27.0078 214.43 25.9375 214.43 24.3594V23.0469Z" fill="#F94BD2"/>
</svg>
